<?xml version="1.0" encoding="UTF-8" ?>
<svg version="1.1" width="32" height="32" xmlns="http://www.w3.org/2000/svg" shape-rendering="crispEdges">
<rect x="13" y="3" width="6" height="1" fill="#111110" />
<rect x="11" y="4" width="2" height="1" fill="#111110" />
<rect x="13" y="4" width="6" height="10" fill="#369C80" />
<rect x="19" y="4" width="2" height="1" fill="#111110" />
<rect x="8" y="5" width="3" height="1" fill="#111110" />
<rect x="11" y="5" width="2" height="3" fill="#369C80" />
<rect x="19" y="5" width="2" height="3" fill="#369C80" />
<rect x="21" y="5" width="3" height="1" fill="#111110" />
<rect x="7" y="6" width="1" height="2" fill="#111110" />
<rect x="8" y="6" width="3" height="5" fill="#369C80" />
<rect x="21" y="6" width="3" height="5" fill="#369C80" />
<rect x="24" y="6" width="1" height="2" fill="#111110" />
<rect x="6" y="8" width="1" height="6" fill="#111110" />
<rect x="7" y="8" width="1" height="6" fill="#369C80" />
<rect x="11" y="8" width="1" height="2" fill="#41DCB0" />
<rect x="12" y="8" width="1" height="7" fill="#369C80" />
<rect x="19" y="8" width="1" height="7" fill="#369C80" />
<rect x="20" y="8" width="1" height="2" fill="#41DCB0" />
<rect x="24" y="8" width="1" height="6" fill="#369C80" />
<rect x="25" y="8" width="1" height="6" fill="#111110" />
<rect x="11" y="10" width="1" height="9" fill="#369C80" />
<rect x="20" y="10" width="1" height="9" fill="#369C80" />
<rect x="8" y="11" width="1" height="5" fill="#369C80" />
<rect x="9" y="11" width="1" height="2" fill="#41DCB0" />
<rect x="10" y="11" width="1" height="7" fill="#369C80" />
<rect x="21" y="11" width="1" height="7" fill="#369C80" />
<rect x="22" y="11" width="1" height="2" fill="#41DCB0" />
<rect x="23" y="11" width="1" height="5" fill="#369C80" />
<rect x="9" y="13" width="1" height="4" fill="#369C80" />
<rect x="22" y="13" width="1" height="4" fill="#369C80" />
<rect x="7" y="14" width="1" height="2" fill="#111110" />
<rect x="13" y="14" width="1" height="1" fill="#41DCB0" />
<rect x="14" y="14" width="4" height="4" fill="#369C80" />
<rect x="18" y="14" width="1" height="1" fill="#41DCB0" />
<rect x="24" y="14" width="1" height="2" fill="#111110" />
<rect x="12" y="15" width="1" height="1" fill="#41DCB0" />
<rect x="13" y="15" width="1" height="6" fill="#369C80" />
<rect x="18" y="15" width="1" height="6" fill="#369C80" />
<rect x="19" y="15" width="1" height="1" fill="#41DCB0" />
<rect x="8" y="16" width="1" height="1" fill="#111110" />
<rect x="12" y="16" width="1" height="4" fill="#369C80" />
<rect x="19" y="16" width="1" height="4" fill="#369C80" />
<rect x="23" y="16" width="1" height="1" fill="#111110" />
<rect x="9" y="17" width="1" height="1" fill="#111110" />
<rect x="22" y="17" width="1" height="1" fill="#111110" />
<rect x="10" y="18" width="1" height="1" fill="#111110" />
<rect x="14" y="18" width="1" height="1" fill="#41DCB0" />
<rect x="15" y="18" width="2" height="3" fill="#369C80" />
<rect x="17" y="18" width="1" height="1" fill="#41DCB0" />
<rect x="21" y="18" width="1" height="1" fill="#111110" />
<rect x="11" y="19" width="1" height="1" fill="#111110" />
<rect x="14" y="19" width="1" height="2" fill="#369C80" />
<rect x="17" y="19" width="1" height="2" fill="#369C80" />
<rect x="20" y="19" width="1" height="1" fill="#111110" />
<rect x="12" y="20" width="1" height="7" fill="#111110" />
<rect x="19" y="20" width="1" height="7" fill="#111110" />
<rect x="13" y="21" width="6" height="1" fill="#542C00" />
<rect x="13" y="22" width="1" height="5" fill="#542C00" />
<rect x="14" y="22" width="1" height="2" fill="#845929" />
<rect x="15" y="22" width="2" height="9" fill="#542C00" />
<rect x="17" y="22" width="1" height="2" fill="#845929" />
<rect x="18" y="22" width="1" height="5" fill="#542C00" />
<rect x="14" y="24" width="1" height="8" fill="#542C00" />
<rect x="17" y="24" width="1" height="8" fill="#542C00" />
<rect x="13" y="27" width="1" height="5" fill="#111110" />
<rect x="18" y="27" width="1" height="5" fill="#111110" />
<rect x="15" y="31" width="2" height="1" fill="#111110" />
</svg>